ISO-10303-21;
HEADER;
FILE_DESCRIPTION(('FreeCAD Model'),'2;1');
FILE_NAME('Open CASCADE Shape Model','2026-10-04T11:37:42',(''),(''),
  'Open CASCADE STEP processor 7.8','FreeCAD','Unknown');
FILE_SCHEMA(('AUTOMOTIVE_DESIGN { 1 0 10303 214 1 1 1 1 }'));
ENDSEC;
DATA;
#1 = APPLICATION_PROTOCOL_DEFINITION('international standard',
  'automotive_design',2000,#2);
#2 = APPLICATION_CONTEXT(
  'core data for automotive mechanical design processes');
#3 = SHAPE_DEFINITION_REPRESENTATION(#4,#10);
#4 = PRODUCT_DEFINITION_SHAPE('','',#5);
#5 = PRODUCT_DEFINITION('design','',#6,#9);
#6 = PRODUCT_DEFINITION_FORMATION('','',#7);
#7 = PRODUCT('Body','Body','',(#8));
#8 = PRODUCT_CONTEXT('',#2,'mechanical');
#9 = PRODUCT_DEFINITION_CONTEXT('part definition',#2,'design');
#10 = ADVANCED_BREP_SHAPE_REPRESENTATION('',(#11,#15),#548);
#11 = AXIS2_PLACEMENT_3D('',#12,#13,#14);
#12 = CARTESIAN_POINT('',(0.,0.,0.));
#13 = DIRECTION('',(0.,0.,1.));
#14 = DIRECTION('',(1.,0.,-0.));
#15 = MANIFOLD_SOLID_BREP('',#16);
#16 = CLOSED_SHELL('',(#17,#57,#88,#119,#152,#185,#251,#317,#334,#351,
    #368,#418,#435,#485,#497,#514,#531));
#17 = ADVANCED_FACE('',(#18),#52,.T.);
#18 = FACE_BOUND('',#19,.T.);
#19 = EDGE_LOOP('',(#20,#30,#38,#46));
#20 = ORIENTED_EDGE('',*,*,#21,.T.);
#21 = EDGE_CURVE('',#22,#24,#26,.T.);
#22 = VERTEX_POINT('',#23);
#23 = CARTESIAN_POINT('',(-19.95,6.,0.));
#24 = VERTEX_POINT('',#25);
#25 = CARTESIAN_POINT('',(-19.95,6.,30.));
#26 = LINE('',#27,#28);
#27 = CARTESIAN_POINT('',(-19.95,6.,0.));
#28 = VECTOR('',#29,1.);
#29 = DIRECTION('',(0.,0.,1.));
#30 = ORIENTED_EDGE('',*,*,#31,.T.);
#31 = EDGE_CURVE('',#24,#32,#34,.T.);
#32 = VERTEX_POINT('',#33);
#33 = CARTESIAN_POINT('',(19.95,6.,30.));
#34 = LINE('',#35,#36);
#35 = CARTESIAN_POINT('',(-19.95,6.,30.));
#36 = VECTOR('',#37,1.);
#37 = DIRECTION('',(1.,-2.E-17,0.));
#38 = ORIENTED_EDGE('',*,*,#39,.F.);
#39 = EDGE_CURVE('',#40,#32,#42,.T.);
#40 = VERTEX_POINT('',#41);
#41 = CARTESIAN_POINT('',(19.95,6.,0.));
#42 = LINE('',#43,#44);
#43 = CARTESIAN_POINT('',(19.95,6.,0.));
#44 = VECTOR('',#45,1.);
#45 = DIRECTION('',(0.,0.,1.));
#46 = ORIENTED_EDGE('',*,*,#47,.F.);
#47 = EDGE_CURVE('',#22,#40,#48,.T.);
#48 = LINE('',#49,#50);
#49 = CARTESIAN_POINT('',(-19.95,6.,0.));
#50 = VECTOR('',#51,1.);
#51 = DIRECTION('',(1.,-2.E-17,0.));
#52 = PLANE('',#53);
#53 = AXIS2_PLACEMENT_3D('',#54,#55,#56);
#54 = CARTESIAN_POINT('',(-19.95,6.,0.));
#55 = DIRECTION('',(2.E-17,1.,0.));
#56 = DIRECTION('',(1.,-2.E-17,0.));
#57 = ADVANCED_FACE('',(#58),#83,.T.);
#58 = FACE_BOUND('',#59,.T.);
#59 = EDGE_LOOP('',(#60,#70,#76,#77));
#60 = ORIENTED_EDGE('',*,*,#61,.T.);
#61 = EDGE_CURVE('',#62,#64,#66,.T.);
#62 = VERTEX_POINT('',#63);
#63 = CARTESIAN_POINT('',(-17.325,0.,0.));
#64 = VERTEX_POINT('',#65);
#65 = CARTESIAN_POINT('',(-17.325,0.,30.));
#66 = LINE('',#67,#68);
#67 = CARTESIAN_POINT('',(-17.325,0.,0.));
#68 = VECTOR('',#69,1.);
#69 = DIRECTION('',(0.,0.,1.));
#70 = ORIENTED_EDGE('',*,*,#71,.T.);
#71 = EDGE_CURVE('',#64,#24,#72,.T.);
#72 = LINE('',#73,#74);
#73 = CARTESIAN_POINT('',(-17.325,0.,30.));
#74 = VECTOR('',#75,1.);
#75 = DIRECTION('',(-0.40081883402,0.916157334902,0.));
#76 = ORIENTED_EDGE('',*,*,#21,.F.);
#77 = ORIENTED_EDGE('',*,*,#78,.F.);
#78 = EDGE_CURVE('',#62,#22,#79,.T.);
#79 = LINE('',#80,#81);
#80 = CARTESIAN_POINT('',(-17.325,0.,0.));
#81 = VECTOR('',#82,1.);
#82 = DIRECTION('',(-0.40081883402,0.916157334902,0.));
#83 = PLANE('',#84);
#84 = AXIS2_PLACEMENT_3D('',#85,#86,#87);
#85 = CARTESIAN_POINT('',(-17.325,0.,0.));
#86 = DIRECTION('',(-0.916157334902,-0.40081883402,0.));
#87 = DIRECTION('',(-0.40081883402,0.916157334902,0.));
#88 = ADVANCED_FACE('',(#89),#114,.T.);
#89 = FACE_BOUND('',#90,.T.);
#90 = EDGE_LOOP('',(#91,#92,#100,#108));
#91 = ORIENTED_EDGE('',*,*,#39,.T.);
#92 = ORIENTED_EDGE('',*,*,#93,.T.);
#93 = EDGE_CURVE('',#32,#94,#96,.T.);
#94 = VERTEX_POINT('',#95);
#95 = CARTESIAN_POINT('',(17.325,0.,30.));
#96 = LINE('',#97,#98);
#97 = CARTESIAN_POINT('',(19.95,6.,30.));
#98 = VECTOR('',#99,1.);
#99 = DIRECTION('',(-0.40081883402,-0.916157334902,0.));
#100 = ORIENTED_EDGE('',*,*,#101,.F.);
#101 = EDGE_CURVE('',#102,#94,#104,.T.);
#102 = VERTEX_POINT('',#103);
#103 = CARTESIAN_POINT('',(17.325,0.,0.));
#104 = LINE('',#105,#106);
#105 = CARTESIAN_POINT('',(17.325,1.6E-16,0.));
#106 = VECTOR('',#107,1.);
#107 = DIRECTION('',(0.,0.,1.));
#108 = ORIENTED_EDGE('',*,*,#109,.F.);
#109 = EDGE_CURVE('',#40,#102,#110,.T.);
#110 = LINE('',#111,#112);
#111 = CARTESIAN_POINT('',(19.95,6.,0.));
#112 = VECTOR('',#113,1.);
#113 = DIRECTION('',(-0.40081883402,-0.916157334902,0.));
#114 = PLANE('',#115);
#115 = AXIS2_PLACEMENT_3D('',#116,#117,#118);
#116 = CARTESIAN_POINT('',(19.95,6.,0.));
#117 = DIRECTION('',(0.916157334902,-0.40081883402,0.));
#118 = DIRECTION('',(-0.40081883402,-0.916157334902,0.));
#119 = ADVANCED_FACE('',(#120),#147,.T.);
#120 = FACE_BOUND('',#121,.T.);
#121 = EDGE_LOOP('',(#122,#123,#124,#132,#140,#146));
#122 = ORIENTED_EDGE('',*,*,#47,.T.);
#123 = ORIENTED_EDGE('',*,*,#109,.T.);
#124 = ORIENTED_EDGE('',*,*,#125,.T.);
#125 = EDGE_CURVE('',#102,#126,#128,.T.);
#126 = VERTEX_POINT('',#127);
#127 = CARTESIAN_POINT('',(17.325,-3.,0.));
#128 = LINE('',#129,#130);
#129 = CARTESIAN_POINT('',(17.325,1.6E-16,0.));
#130 = VECTOR('',#131,1.);
#131 = DIRECTION('',(0.,-1.,0.));
#132 = ORIENTED_EDGE('',*,*,#133,.T.);
#133 = EDGE_CURVE('',#126,#134,#136,.T.);
#134 = VERTEX_POINT('',#135);
#135 = CARTESIAN_POINT('',(-17.325,-3.,0.));
#136 = LINE('',#137,#138);
#137 = CARTESIAN_POINT('',(17.325,-3.,0.));
#138 = VECTOR('',#139,1.);
#139 = DIRECTION('',(-1.,0.,0.));
#140 = ORIENTED_EDGE('',*,*,#141,.F.);
#141 = EDGE_CURVE('',#62,#134,#142,.T.);
#142 = LINE('',#143,#144);
#143 = CARTESIAN_POINT('',(-17.325,0.,0.));
#144 = VECTOR('',#145,1.);
#145 = DIRECTION('',(0.,-1.,0.));
#146 = ORIENTED_EDGE('',*,*,#78,.T.);
#147 = PLANE('',#148);
#148 = AXIS2_PLACEMENT_3D('',#149,#150,#151);
#149 = CARTESIAN_POINT('',(-1.5E-16,1.769864064467,0.));
#150 = DIRECTION('',(-0.,-0.,-1.));
#151 = DIRECTION('',(-1.,0.,0.));
#152 = ADVANCED_FACE('',(#153),#180,.T.);
#153 = FACE_BOUND('',#154,.T.);
#154 = EDGE_LOOP('',(#155,#156,#157,#165,#173,#179));
#155 = ORIENTED_EDGE('',*,*,#31,.F.);
#156 = ORIENTED_EDGE('',*,*,#71,.F.);
#157 = ORIENTED_EDGE('',*,*,#158,.T.);
#158 = EDGE_CURVE('',#64,#159,#161,.T.);
#159 = VERTEX_POINT('',#160);
#160 = CARTESIAN_POINT('',(-17.325,-3.,30.));
#161 = LINE('',#162,#163);
#162 = CARTESIAN_POINT('',(-17.325,0.,30.));
#163 = VECTOR('',#164,1.);
#164 = DIRECTION('',(0.,-1.,0.));
#165 = ORIENTED_EDGE('',*,*,#166,.F.);
#166 = EDGE_CURVE('',#167,#159,#169,.T.);
#167 = VERTEX_POINT('',#168);
#168 = CARTESIAN_POINT('',(17.325,-3.,30.));
#169 = LINE('',#170,#171);
#170 = CARTESIAN_POINT('',(17.325,-3.,30.));
#171 = VECTOR('',#172,1.);
#172 = DIRECTION('',(-1.,0.,0.));
#173 = ORIENTED_EDGE('',*,*,#174,.F.);
#174 = EDGE_CURVE('',#94,#167,#175,.T.);
#175 = LINE('',#176,#177);
#176 = CARTESIAN_POINT('',(17.325,1.6E-16,30.));
#177 = VECTOR('',#178,1.);
#178 = DIRECTION('',(0.,-1.,0.));
#179 = ORIENTED_EDGE('',*,*,#93,.F.);
#180 = PLANE('',#181);
#181 = AXIS2_PLACEMENT_3D('',#182,#183,#184);
#182 = CARTESIAN_POINT('',(-1.5E-16,1.769864064467,30.));
#183 = DIRECTION('',(0.,0.,1.));
#184 = DIRECTION('',(1.,0.,0.));
#185 = ADVANCED_FACE('',(#186),#246,.T.);
#186 = FACE_BOUND('',#187,.T.);
#187 = EDGE_LOOP('',(#188,#189,#197,#206,#214,#222,#230,#238,#244,#245)
  );
#188 = ORIENTED_EDGE('',*,*,#141,.T.);
#189 = ORIENTED_EDGE('',*,*,#190,.T.);
#190 = EDGE_CURVE('',#134,#191,#193,.T.);
#191 = VERTEX_POINT('',#192);
#192 = CARTESIAN_POINT('',(-17.325,-3.,3.));
#193 = LINE('',#194,#195);
#194 = CARTESIAN_POINT('',(-17.325,-3.,0.));
#195 = VECTOR('',#196,1.);
#196 = DIRECTION('',(0.,0.,1.));
#197 = ORIENTED_EDGE('',*,*,#198,.T.);
#198 = EDGE_CURVE('',#191,#199,#201,.T.);
#199 = VERTEX_POINT('',#200);
#200 = CARTESIAN_POINT('',(-17.325,-15.5,15.669872981078));
#201 = CIRCLE('',#202,16.);
#202 = AXIS2_PLACEMENT_3D('',#203,#204,#205);
#203 = CARTESIAN_POINT('',(-17.325,-18.71553011227,-3.68328726992E-03));
#204 = DIRECTION('',(1.,0.,0.));
#205 = DIRECTION('',(0.,1.,0.));
#206 = ORIENTED_EDGE('',*,*,#207,.F.);
#207 = EDGE_CURVE('',#208,#199,#210,.T.);
#208 = VERTEX_POINT('',#209);
#209 = CARTESIAN_POINT('',(-17.325,-32.82050807568,25.669872981078));
#210 = LINE('',#211,#212);
#211 = CARTESIAN_POINT('',(-17.325,-32.82050807568,25.669872981078));
#212 = VECTOR('',#213,1.);
#213 = DIRECTION('',(0.,0.866025403784,-0.5));
#214 = ORIENTED_EDGE('',*,*,#215,.F.);
#215 = EDGE_CURVE('',#216,#208,#218,.T.);
#216 = VERTEX_POINT('',#217);
#217 = CARTESIAN_POINT('',(-17.325,-30.32050807568,30.));
#218 = LINE('',#219,#220);
#219 = CARTESIAN_POINT('',(-17.325,-30.32050807568,30.));
#220 = VECTOR('',#221,1.);
#221 = DIRECTION('',(0.,-0.5,-0.866025403784));
#222 = ORIENTED_EDGE('',*,*,#223,.F.);
#223 = EDGE_CURVE('',#224,#216,#226,.T.);
#224 = VERTEX_POINT('',#225);
#225 = CARTESIAN_POINT('',(-17.325,-13.,20.));
#226 = LINE('',#227,#228);
#227 = CARTESIAN_POINT('',(-17.325,-13.,20.));
#228 = VECTOR('',#229,1.);
#229 = DIRECTION('',(0.,-0.866025403784,0.5));
#230 = ORIENTED_EDGE('',*,*,#231,.F.);
#231 = EDGE_CURVE('',#232,#224,#234,.T.);
#232 = VERTEX_POINT('',#233);
#233 = CARTESIAN_POINT('',(-17.325,-3.,20.));
#234 = LINE('',#235,#236);
#235 = CARTESIAN_POINT('',(-17.325,-3.,20.));
#236 = VECTOR('',#237,1.);
#237 = DIRECTION('',(0.,-1.,0.));
#238 = ORIENTED_EDGE('',*,*,#239,.T.);
#239 = EDGE_CURVE('',#232,#159,#240,.T.);
#240 = LINE('',#241,#242);
#241 = CARTESIAN_POINT('',(-17.325,-3.,0.));
#242 = VECTOR('',#243,1.);
#243 = DIRECTION('',(0.,0.,1.));
#244 = ORIENTED_EDGE('',*,*,#158,.F.);
#245 = ORIENTED_EDGE('',*,*,#61,.F.);
#246 = PLANE('',#247);
#247 = AXIS2_PLACEMENT_3D('',#248,#249,#250);
#248 = CARTESIAN_POINT('',(-17.325,-11.03366935517,18.27380934758));
#249 = DIRECTION('',(-1.,-0.,-0.));
#250 = DIRECTION('',(0.,0.,-1.));
#251 = ADVANCED_FACE('',(#252),#312,.T.);
#252 = FACE_BOUND('',#253,.T.);
#253 = EDGE_LOOP('',(#254,#255,#256,#257,#265,#273,#281,#289,#297,#306)
  );
#254 = ORIENTED_EDGE('',*,*,#125,.F.);
#255 = ORIENTED_EDGE('',*,*,#101,.T.);
#256 = ORIENTED_EDGE('',*,*,#174,.T.);
#257 = ORIENTED_EDGE('',*,*,#258,.F.);
#258 = EDGE_CURVE('',#259,#167,#261,.T.);
#259 = VERTEX_POINT('',#260);
#260 = CARTESIAN_POINT('',(17.325,-3.,20.));
#261 = LINE('',#262,#263);
#262 = CARTESIAN_POINT('',(17.325,-3.,0.));
#263 = VECTOR('',#264,1.);
#264 = DIRECTION('',(0.,0.,1.));
#265 = ORIENTED_EDGE('',*,*,#266,.T.);
#266 = EDGE_CURVE('',#259,#267,#269,.T.);
#267 = VERTEX_POINT('',#268);
#268 = CARTESIAN_POINT('',(17.325,-13.,20.));
#269 = LINE('',#270,#271);
#270 = CARTESIAN_POINT('',(17.325,-3.,20.));
#271 = VECTOR('',#272,1.);
#272 = DIRECTION('',(0.,-1.,0.));
#273 = ORIENTED_EDGE('',*,*,#274,.T.);
#274 = EDGE_CURVE('',#267,#275,#277,.T.);
#275 = VERTEX_POINT('',#276);
#276 = CARTESIAN_POINT('',(17.325,-30.32050807568,30.));
#277 = LINE('',#278,#279);
#278 = CARTESIAN_POINT('',(17.325,-13.,20.));
#279 = VECTOR('',#280,1.);
#280 = DIRECTION('',(0.,-0.866025403784,0.5));
#281 = ORIENTED_EDGE('',*,*,#282,.T.);
#282 = EDGE_CURVE('',#275,#283,#285,.T.);
#283 = VERTEX_POINT('',#284);
#284 = CARTESIAN_POINT('',(17.325,-32.82050807568,25.669872981078));
#285 = LINE('',#286,#287);
#286 = CARTESIAN_POINT('',(17.325,-30.32050807568,30.));
#287 = VECTOR('',#288,1.);
#288 = DIRECTION('',(0.,-0.5,-0.866025403784));
#289 = ORIENTED_EDGE('',*,*,#290,.T.);
#290 = EDGE_CURVE('',#283,#291,#293,.T.);
#291 = VERTEX_POINT('',#292);
#292 = CARTESIAN_POINT('',(17.325,-15.5,15.669872981078));
#293 = LINE('',#294,#295);
#294 = CARTESIAN_POINT('',(17.325,-32.82050807568,25.669872981078));
#295 = VECTOR('',#296,1.);
#296 = DIRECTION('',(0.,0.866025403784,-0.5));
#297 = ORIENTED_EDGE('',*,*,#298,.F.);
#298 = EDGE_CURVE('',#299,#291,#301,.T.);
#299 = VERTEX_POINT('',#300);
#300 = CARTESIAN_POINT('',(17.325,-3.,3.));
#301 = CIRCLE('',#302,16.);
#302 = AXIS2_PLACEMENT_3D('',#303,#304,#305);
#303 = CARTESIAN_POINT('',(17.325,-18.71553011227,-3.68328726992E-03));
#304 = DIRECTION('',(1.,0.,0.));
#305 = DIRECTION('',(0.,1.,0.));
#306 = ORIENTED_EDGE('',*,*,#307,.F.);
#307 = EDGE_CURVE('',#126,#299,#308,.T.);
#308 = LINE('',#309,#310);
#309 = CARTESIAN_POINT('',(17.325,-3.,0.));
#310 = VECTOR('',#311,1.);
#311 = DIRECTION('',(0.,0.,1.));
#312 = PLANE('',#313);
#313 = AXIS2_PLACEMENT_3D('',#314,#315,#316);
#314 = CARTESIAN_POINT('',(17.325,-11.03366935517,18.27380934758));
#315 = DIRECTION('',(1.,0.,0.));
#316 = DIRECTION('',(0.,0.,1.));
#317 = ADVANCED_FACE('',(#318),#329,.T.);
#318 = FACE_BOUND('',#319,.T.);
#319 = EDGE_LOOP('',(#320,#321,#322,#328));
#320 = ORIENTED_EDGE('',*,*,#133,.F.);
#321 = ORIENTED_EDGE('',*,*,#307,.T.);
#322 = ORIENTED_EDGE('',*,*,#323,.T.);
#323 = EDGE_CURVE('',#299,#191,#324,.T.);
#324 = LINE('',#325,#326);
#325 = CARTESIAN_POINT('',(17.325,-3.,3.));
#326 = VECTOR('',#327,1.);
#327 = DIRECTION('',(-1.,-0.,-0.));
#328 = ORIENTED_EDGE('',*,*,#190,.F.);
#329 = PLANE('',#330);
#330 = AXIS2_PLACEMENT_3D('',#331,#332,#333);
#331 = CARTESIAN_POINT('',(17.325,-3.,0.));
#332 = DIRECTION('',(0.,-1.,0.));
#333 = DIRECTION('',(-1.,0.,0.));
#334 = ADVANCED_FACE('',(#335),#346,.T.);
#335 = FACE_BOUND('',#336,.T.);
#336 = EDGE_LOOP('',(#337,#343,#344,#345));
#337 = ORIENTED_EDGE('',*,*,#338,.F.);
#338 = EDGE_CURVE('',#259,#232,#339,.T.);
#339 = LINE('',#340,#341);
#340 = CARTESIAN_POINT('',(17.325,-3.,20.));
#341 = VECTOR('',#342,1.);
#342 = DIRECTION('',(-1.,-0.,-0.));
#343 = ORIENTED_EDGE('',*,*,#258,.T.);
#344 = ORIENTED_EDGE('',*,*,#166,.T.);
#345 = ORIENTED_EDGE('',*,*,#239,.F.);
#346 = PLANE('',#347);
#347 = AXIS2_PLACEMENT_3D('',#348,#349,#350);
#348 = CARTESIAN_POINT('',(17.325,-3.,0.));
#349 = DIRECTION('',(0.,-1.,0.));
#350 = DIRECTION('',(-1.,0.,0.));
#351 = ADVANCED_FACE('',(#352),#363,.F.);
#352 = FACE_BOUND('',#353,.F.);
#353 = EDGE_LOOP('',(#354,#355,#356,#362));
#354 = ORIENTED_EDGE('',*,*,#323,.T.);
#355 = ORIENTED_EDGE('',*,*,#198,.T.);
#356 = ORIENTED_EDGE('',*,*,#357,.F.);
#357 = EDGE_CURVE('',#291,#199,#358,.T.);
#358 = LINE('',#359,#360);
#359 = CARTESIAN_POINT('',(17.325,-15.5,15.669872981078));
#360 = VECTOR('',#361,1.);
#361 = DIRECTION('',(-1.,-0.,-0.));
#362 = ORIENTED_EDGE('',*,*,#298,.F.);
#363 = CYLINDRICAL_SURFACE('',#364,16.);
#364 = AXIS2_PLACEMENT_3D('',#365,#366,#367);
#365 = CARTESIAN_POINT('',(17.325,-18.71553011227,-3.68328726992E-03));
#366 = DIRECTION('',(1.,0.,0.));
#367 = DIRECTION('',(0.,1.,0.));
#368 = ADVANCED_FACE('',(#369,#380,#391,#402),#413,.T.);
#369 = FACE_BOUND('',#370,.T.);
#370 = EDGE_LOOP('',(#371,#377,#378,#379));
#371 = ORIENTED_EDGE('',*,*,#372,.T.);
#372 = EDGE_CURVE('',#283,#208,#373,.T.);
#373 = LINE('',#374,#375);
#374 = CARTESIAN_POINT('',(17.325,-32.82050807568,25.669872981078));
#375 = VECTOR('',#376,1.);
#376 = DIRECTION('',(-1.,-0.,-0.));
#377 = ORIENTED_EDGE('',*,*,#207,.T.);
#378 = ORIENTED_EDGE('',*,*,#357,.F.);
#379 = ORIENTED_EDGE('',*,*,#290,.F.);
#380 = FACE_BOUND('',#381,.T.);
#381 = EDGE_LOOP('',(#382));
#382 = ORIENTED_EDGE('',*,*,#383,.T.);
#383 = EDGE_CURVE('',#384,#384,#386,.T.);
#384 = VERTEX_POINT('',#385);
#385 = CARTESIAN_POINT('',(-5.6625,-24.16025403784,20.669872981078));
#386 = CIRCLE('',#387,3.);
#387 = AXIS2_PLACEMENT_3D('',#388,#389,#390);
#388 = CARTESIAN_POINT('',(-8.6625,-24.16025403784,20.669872981078));
#389 = DIRECTION('',(-0.,0.5,0.866025403784));
#390 = DIRECTION('',(1.,0.,0.));
#391 = FACE_BOUND('',#392,.T.);
#392 = EDGE_LOOP('',(#393));
#393 = ORIENTED_EDGE('',*,*,#394,.T.);
#394 = EDGE_CURVE('',#395,#395,#397,.T.);
#395 = VERTEX_POINT('',#396);
#396 = CARTESIAN_POINT('',(3.,-24.16025403784,20.669872981078));
#397 = CIRCLE('',#398,3.);
#398 = AXIS2_PLACEMENT_3D('',#399,#400,#401);
#399 = CARTESIAN_POINT('',(0.,-24.16025403784,20.669872981078));
#400 = DIRECTION('',(-0.,0.5,0.866025403784));
#401 = DIRECTION('',(1.,0.,0.));
#402 = FACE_BOUND('',#403,.T.);
#403 = EDGE_LOOP('',(#404));
#404 = ORIENTED_EDGE('',*,*,#405,.T.);
#405 = EDGE_CURVE('',#406,#406,#408,.T.);
#406 = VERTEX_POINT('',#407);
#407 = CARTESIAN_POINT('',(11.6625,-24.16025403784,20.669872981078));
#408 = CIRCLE('',#409,3.);
#409 = AXIS2_PLACEMENT_3D('',#410,#411,#412);
#410 = CARTESIAN_POINT('',(8.6625,-24.16025403784,20.669872981078));
#411 = DIRECTION('',(-0.,0.5,0.866025403784));
#412 = DIRECTION('',(1.,0.,0.));
#413 = PLANE('',#414);
#414 = AXIS2_PLACEMENT_3D('',#415,#416,#417);
#415 = CARTESIAN_POINT('',(17.325,-32.82050807568,25.669872981078));
#416 = DIRECTION('',(0.,-0.5,-0.866025403784));
#417 = DIRECTION('',(0.,0.866025403784,-0.5));
#418 = ADVANCED_FACE('',(#419),#430,.T.);
#419 = FACE_BOUND('',#420,.T.);
#420 = EDGE_LOOP('',(#421,#427,#428,#429));
#421 = ORIENTED_EDGE('',*,*,#422,.T.);
#422 = EDGE_CURVE('',#275,#216,#423,.T.);
#423 = LINE('',#424,#425);
#424 = CARTESIAN_POINT('',(17.325,-30.32050807568,30.));
#425 = VECTOR('',#426,1.);
#426 = DIRECTION('',(-1.,-0.,-0.));
#427 = ORIENTED_EDGE('',*,*,#215,.T.);
#428 = ORIENTED_EDGE('',*,*,#372,.F.);
#429 = ORIENTED_EDGE('',*,*,#282,.F.);
#430 = PLANE('',#431);
#431 = AXIS2_PLACEMENT_3D('',#432,#433,#434);
#432 = CARTESIAN_POINT('',(17.325,-30.32050807568,30.));
#433 = DIRECTION('',(0.,-0.866025403784,0.5));
#434 = DIRECTION('',(0.,-0.5,-0.866025403784));
#435 = ADVANCED_FACE('',(#436,#447,#458,#469),#480,.T.);
#436 = FACE_BOUND('',#437,.T.);
#437 = EDGE_LOOP('',(#438,#444,#445,#446));
#438 = ORIENTED_EDGE('',*,*,#439,.T.);
#439 = EDGE_CURVE('',#267,#224,#440,.T.);
#440 = LINE('',#441,#442);
#441 = CARTESIAN_POINT('',(17.325,-13.,20.));
#442 = VECTOR('',#443,1.);
#443 = DIRECTION('',(-1.,-0.,-0.));
#444 = ORIENTED_EDGE('',*,*,#223,.T.);
#445 = ORIENTED_EDGE('',*,*,#422,.F.);
#446 = ORIENTED_EDGE('',*,*,#274,.F.);
#447 = FACE_BOUND('',#448,.T.);
#448 = EDGE_LOOP('',(#449));
#449 = ORIENTED_EDGE('',*,*,#450,.F.);
#450 = EDGE_CURVE('',#451,#451,#453,.T.);
#451 = VERTEX_POINT('',#452);
#452 = CARTESIAN_POINT('',(-5.6625,-21.66025403784,25.));
#453 = CIRCLE('',#454,3.);
#454 = AXIS2_PLACEMENT_3D('',#455,#456,#457);
#455 = CARTESIAN_POINT('',(-8.6625,-21.66025403784,25.));
#456 = DIRECTION('',(-0.,0.5,0.866025403784));
#457 = DIRECTION('',(1.,0.,0.));
#458 = FACE_BOUND('',#459,.T.);
#459 = EDGE_LOOP('',(#460));
#460 = ORIENTED_EDGE('',*,*,#461,.F.);
#461 = EDGE_CURVE('',#462,#462,#464,.T.);
#462 = VERTEX_POINT('',#463);
#463 = CARTESIAN_POINT('',(3.,-21.66025403784,25.));
#464 = CIRCLE('',#465,3.);
#465 = AXIS2_PLACEMENT_3D('',#466,#467,#468);
#466 = CARTESIAN_POINT('',(0.,-21.66025403784,25.));
#467 = DIRECTION('',(-0.,0.5,0.866025403784));
#468 = DIRECTION('',(1.,0.,0.));
#469 = FACE_BOUND('',#470,.T.);
#470 = EDGE_LOOP('',(#471));
#471 = ORIENTED_EDGE('',*,*,#472,.F.);
#472 = EDGE_CURVE('',#473,#473,#475,.T.);
#473 = VERTEX_POINT('',#474);
#474 = CARTESIAN_POINT('',(11.6625,-21.66025403784,25.));
#475 = CIRCLE('',#476,3.);
#476 = AXIS2_PLACEMENT_3D('',#477,#478,#479);
#477 = CARTESIAN_POINT('',(8.6625,-21.66025403784,25.));
#478 = DIRECTION('',(-0.,0.5,0.866025403784));
#479 = DIRECTION('',(1.,0.,0.));
#480 = PLANE('',#481);
#481 = AXIS2_PLACEMENT_3D('',#482,#483,#484);
#482 = CARTESIAN_POINT('',(17.325,-13.,20.));
#483 = DIRECTION('',(0.,0.5,0.866025403784));
#484 = DIRECTION('',(0.,-0.866025403784,0.5));
#485 = ADVANCED_FACE('',(#486),#492,.T.);
#486 = FACE_BOUND('',#487,.T.);
#487 = EDGE_LOOP('',(#488,#489,#490,#491));
#488 = ORIENTED_EDGE('',*,*,#338,.T.);
#489 = ORIENTED_EDGE('',*,*,#231,.T.);
#490 = ORIENTED_EDGE('',*,*,#439,.F.);
#491 = ORIENTED_EDGE('',*,*,#266,.F.);
#492 = PLANE('',#493);
#493 = AXIS2_PLACEMENT_3D('',#494,#495,#496);
#494 = CARTESIAN_POINT('',(17.325,-3.,20.));
#495 = DIRECTION('',(0.,0.,1.));
#496 = DIRECTION('',(0.,-1.,0.));
#497 = ADVANCED_FACE('',(#498),#509,.F.);
#498 = FACE_BOUND('',#499,.F.);
#499 = EDGE_LOOP('',(#500,#501,#507,#508));
#500 = ORIENTED_EDGE('',*,*,#450,.F.);
#501 = ORIENTED_EDGE('',*,*,#502,.T.);
#502 = EDGE_CURVE('',#451,#384,#503,.T.);
#503 = LINE('',#504,#505);
#504 = CARTESIAN_POINT('',(-5.6625,-21.66025403784,25.));
#505 = VECTOR('',#506,1.);
#506 = DIRECTION('',(-0.,-0.5,-0.866025403784));
#507 = ORIENTED_EDGE('',*,*,#383,.T.);
#508 = ORIENTED_EDGE('',*,*,#502,.F.);
#509 = CYLINDRICAL_SURFACE('',#510,3.);
#510 = AXIS2_PLACEMENT_3D('',#511,#512,#513);
#511 = CARTESIAN_POINT('',(-8.6625,-21.66025403784,25.));
#512 = DIRECTION('',(0.,0.5,0.866025403784));
#513 = DIRECTION('',(1.,0.,-0.));
#514 = ADVANCED_FACE('',(#515),#526,.F.);
#515 = FACE_BOUND('',#516,.F.);
#516 = EDGE_LOOP('',(#517,#518,#524,#525));
#517 = ORIENTED_EDGE('',*,*,#461,.F.);
#518 = ORIENTED_EDGE('',*,*,#519,.T.);
#519 = EDGE_CURVE('',#462,#395,#520,.T.);
#520 = LINE('',#521,#522);
#521 = CARTESIAN_POINT('',(3.,-21.66025403784,25.));
#522 = VECTOR('',#523,1.);
#523 = DIRECTION('',(-0.,-0.5,-0.866025403784));
#524 = ORIENTED_EDGE('',*,*,#394,.T.);
#525 = ORIENTED_EDGE('',*,*,#519,.F.);
#526 = CYLINDRICAL_SURFACE('',#527,3.);
#527 = AXIS2_PLACEMENT_3D('',#528,#529,#530);
#528 = CARTESIAN_POINT('',(0.,-21.66025403784,25.));
#529 = DIRECTION('',(0.,0.5,0.866025403784));
#530 = DIRECTION('',(1.,0.,-0.));
#531 = ADVANCED_FACE('',(#532),#543,.F.);
#532 = FACE_BOUND('',#533,.F.);
#533 = EDGE_LOOP('',(#534,#535,#541,#542));
#534 = ORIENTED_EDGE('',*,*,#472,.F.);
#535 = ORIENTED_EDGE('',*,*,#536,.T.);
#536 = EDGE_CURVE('',#473,#406,#537,.T.);
#537 = LINE('',#538,#539);
#538 = CARTESIAN_POINT('',(11.6625,-21.66025403784,25.));
#539 = VECTOR('',#540,1.);
#540 = DIRECTION('',(-0.,-0.5,-0.866025403784));
#541 = ORIENTED_EDGE('',*,*,#405,.T.);
#542 = ORIENTED_EDGE('',*,*,#536,.F.);
#543 = CYLINDRICAL_SURFACE('',#544,3.);
#544 = AXIS2_PLACEMENT_3D('',#545,#546,#547);
#545 = CARTESIAN_POINT('',(8.6625,-21.66025403784,25.));
#546 = DIRECTION('',(0.,0.5,0.866025403784));
#547 = DIRECTION('',(1.,0.,-0.));
#548 = ( GEOMETRIC_REPRESENTATION_CONTEXT(3) 
GLOBAL_UNCERTAINTY_ASSIGNED_CONTEXT((#552)) GLOBAL_UNIT_ASSIGNED_CONTEXT
((#549,#550,#551)) REPRESENTATION_CONTEXT('Context #1',
  '3D Context with UNIT and UNCERTAINTY') );
#549 = ( LENGTH_UNIT() NAMED_UNIT(*) SI_UNIT(.MILLI.,.METRE.) );
#550 = ( NAMED_UNIT(*) PLANE_ANGLE_UNIT() SI_UNIT($,.RADIAN.) );
#551 = ( NAMED_UNIT(*) SI_UNIT($,.STERADIAN.) SOLID_ANGLE_UNIT() );
#552 = UNCERTAINTY_MEASURE_WITH_UNIT(LENGTH_MEASURE(1.E-07),#549,
  'distance_accuracy_value','confusion accuracy');
#553 = PRODUCT_RELATED_PRODUCT_CATEGORY('part',$,(#7));
#554 = MECHANICAL_DESIGN_GEOMETRIC_PRESENTATION_REPRESENTATION('',(#555)
  ,#548);
#555 = STYLED_ITEM('color',(#556),#15);
#556 = PRESENTATION_STYLE_ASSIGNMENT((#557,#563));
#557 = SURFACE_STYLE_USAGE(.BOTH.,#558);
#558 = SURFACE_SIDE_STYLE('',(#559));
#559 = SURFACE_STYLE_FILL_AREA(#560);
#560 = FILL_AREA_STYLE('',(#561));
#561 = FILL_AREA_STYLE_COLOUR('',#562);
#562 = COLOUR_RGB('',0.678431390124,0.709803936702,0.741176476869);
#563 = CURVE_STYLE('',#564,POSITIVE_LENGTH_MEASURE(0.1),#565);
#564 = DRAUGHTING_PRE_DEFINED_CURVE_FONT('continuous');
#565 = COLOUR_RGB('',9.803921802644E-02,9.803921802644E-02,
  9.803921802644E-02);
ENDSEC;
END-ISO-10303-21;
